<svg xmlns="http://www.w3.org/2000/svg" height="24px" viewBox="0 -960 960 960" width="24px" fill="#e3e3e3"><path d="M240-80q-33 0-56.5-23.5T160-160v-640q0-33 23.5-56.5T240-880h320l240 240v480q0 33-23.5 56.5T720-80H240Zm280-520v-200H240v640h480v-440H520ZM360-280v-80h-80v-80h80v-80h80v80h80v80h-80v80h-80Zm200-80q17 0 28.5-11.5T600-400q0-17-11.5-28.5T560-440q-17 0-28.5 11.5T520-400q0 17 11.5 28.5T560-360Zm80-80q17 0 28.5-11.5T680-480q0-17-11.5-28.5T640-520q-17 0-28.5 11.5T600-480q0 17 11.5 28.5T640-440ZM240-800v200-200 640-640Z"/></svg>
