<svg xmlns="http://www.w3.org/2000/svg" height="24" viewBox="0 -960 960 960" width="24" fill="currentColor"><path d="M120-400v-160h80v160h-80Zm0-240v-80q0-33 23.5-56.5T200-720h80v80h-80v80h-80Zm0 480v-80h80v80h-80Zm160 0v-80h80v80h-80Zm0-640v-80h80v80h-80Zm160 80v-80h80v80h-80Zm0 560v-80h80v80h-80Zm160-560v-80h80v80h-80Zm0 560v-80h80v80h-80Zm160-240v-160h80v160h-80Zm0 240v-80h-80v-80h80q33 0 56.5 23.5T840-160v80h-80Zm0-560v-80h-80v-80q33 0 56.5 23.5T840-760v80h-80ZM440-440v-360L200-440h240Zm80 0h240L520-800v360Z"/></svg>
