<svg xmlns="http://www.w3.org/2000/svg" width="256" height="256" viewBox="0 0 256 256" role="img" aria-labelledby="title desc">
  <title id="title">Icy Draw - Pixel Signal</title>
  <desc id="desc">Kantiger Zeichenstift mit Pixelspur auf dunklem Terminalfeld mit korallfarbenem Signal.</desc>
  <defs>
    <linearGradient id="case" x2="0" y2="1"><stop stop-color="#233b50"/><stop offset="1" stop-color="#0d1a2b"/></linearGradient>
    <linearGradient id="screen" x2="0" y2="1"><stop stop-color="#172e3c"/><stop offset="1" stop-color="#102333"/></linearGradient>
  </defs>
  <rect x="16" y="16" width="224" height="224" rx="42" fill="url(#case)"/>
  <rect x="19" y="19" width="218" height="218" rx="39" fill="none" stroke="#7b9aac" stroke-opacity=".55" stroke-width="2"/>
  <rect x="35" y="36" width="186" height="184" rx="23" fill="url(#screen)" stroke="#4d6d81" stroke-width="3"/>
  <path d="M54 68H202" stroke="#4d6d81" stroke-width="2"/>
  <rect x="54" y="51" width="10" height="10" rx="2" fill="#ff9887"/>
  <rect x="70" y="51" width="10" height="10" rx="2" fill="#ff9887" opacity=".42"/>
  <rect x="86" y="51" width="10" height="10" rx="2" fill="#ff9887" opacity=".2"/>
  <path d="M74 149L146 77L178 109L106 181L68 187Z" fill="#effcff"/>
  <path d="M146 77L161 62L193 94L178 109Z" fill="#ff9887"/>
  <path d="M74 149L106 181L68 187Z" fill="#ff9887"/>
  <path d="M55 202H81M91 202H117M127 202H153" stroke="#ff9887" stroke-width="4" opacity=".7"/>
</svg>
